<?xml version="1.0" standalone="no"?>
<!DOCTYPE svg PUBLIC "-//W3C//DTD SVG 20010904//EN"
 "http://www.w3.org/TR/2001/REC-SVG-20010904/DTD/svg10.dtd">
<svg version="1.0" xmlns="http://www.w3.org/2000/svg"
 width="900.000000pt" height="600.000000pt" viewBox="0 0 900.000000 600.000000"
 preserveAspectRatio="xMidYMid meet">
<metadata>
Created by potrace 1.15, written by Peter Selinger 2001-2017
</metadata>
<g transform="translate(0.000000,600.000000) scale(0.100000,-0.100000)"
fill="#000000" stroke="none">
<path d="M2596 5282 c-14 -44 -30 -111 -37 -148 -15 -87 -6 -291 16 -365 l17
-57 -55 -73 c-110 -148 -167 -288 -187 -464 -22 -186 10 -492 66 -640 5 -13
-21 -15 -228 -15 -129 0 -295 -5 -369 -10 -169 -14 -481 -58 -493 -70 -14 -14
14 -13 114 5 195 35 352 47 666 52 l321 5 17 -42 c12 -31 14 -45 6 -50 -6 -4
-71 -10 -143 -14 -173 -8 -365 -30 -557 -62 -171 -28 -400 -81 -415 -95 -14
-14 3 -11 136 20 231 55 536 101 774 116 50 3 122 8 161 10 l71 6 36 -58 c150
-242 430 -398 834 -465 l133 -22 -50 -52 c-49 -51 -120 -180 -120 -216 0 -43
-177 -94 -298 -85 -143 10 -243 73 -340 215 -105 153 -213 230 -337 239 -75 6
-115 -8 -115 -40 0 -29 15 -43 106 -95 90 -52 141 -109 223 -248 120 -203 241
-289 443 -315 71 -9 228 1 281 17 18 6 18 -7 15 -273 -3 -240 -5 -282 -20
-309 -24 -43 -68 -83 -119 -108 -52 -25 -69 -49 -53 -74 10 -14 27 -17 110
-16 87 0 107 4 162 29 74 33 132 93 152 157 11 33 14 119 15 363 0 343 5 385
50 441 l24 29 0 -500 c1 -473 0 -502 -19 -542 -10 -24 -23 -43 -27 -43 -19 0
-63 -53 -63 -75 0 -42 27 -58 87 -52 112 12 213 80 260 175 l28 57 -3 496 c-4
527 -3 543 41 537 l22 -3 5 -525 c5 -515 5 -526 27 -565 31 -58 90 -110 156
-139 74 -33 128 -42 158 -26 52 28 51 49 -4 105 -24 24 -49 61 -55 83 -16 51
-29 1002 -14 1002 5 0 16 -10 24 -22 39 -61 42 -87 47 -438 6 -333 7 -346 28
-385 29 -52 41 -65 85 -99 51 -38 146 -66 227 -66 84 0 111 15 94 53 -7 15
-29 35 -50 46 -50 25 -87 66 -112 121 -19 42 -21 65 -21 381 0 370 -5 459 -26
459 -8 0 -14 7 -14 15 0 8 -6 15 -14 15 -7 0 -16 9 -19 20 -3 11 -12 20 -21
20 -9 0 -16 7 -16 15 0 8 -7 15 -15 15 -8 0 -15 6 -15 14 0 8 -13 17 -29 21
-22 5 -31 14 -36 36 -4 16 -13 29 -21 29 -8 0 -14 7 -14 15 0 8 -7 15 -15 15
-8 0 -15 9 -15 20 0 13 -7 20 -20 20 -13 0 -20 7 -20 20 0 11 -7 20 -15 20
-10 0 -15 10 -15 30 0 20 -5 30 -15 30 -8 0 -15 7 -15 15 0 27 -49 37 -145 31
-131 -9 -491 10 -628 34 -302 51 -493 167 -580 351 -50 106 -62 166 -62 309 0
113 3 131 27 188 34 78 104 179 160 227 58 49 118 79 205 100 77 19 51 19 679
-1 l202 -7 7 32 c4 17 10 31 15 31 5 0 11 13 15 29 3 16 13 32 21 35 8 3 14
19 14 36 0 20 5 30 15 30 10 0 15 11 15 35 0 28 4 35 20 35 13 0 20 7 20 20 0
11 7 20 15 20 10 0 15 10 15 30 0 20 5 30 15 30 8 0 15 7 15 16 0 9 9 18 20
21 11 3 20 12 20 19 0 8 7 14 15 14 10 0 15 10 15 29 0 20 6 30 20 34 11 3 20
12 20 21 0 9 7 16 15 16 8 0 15 7 15 15 0 8 7 15 15 15 8 0 15 6 15 14 0 8 14
17 30 21 17 4 30 13 30 21 0 8 9 14 20 14 11 0 20 7 20 15 0 8 7 15 16 15 9 0
18 9 21 20 3 11 12 20 19 20 8 0 14 7 14 15 0 10 10 15 30 15 20 0 30 5 30 15
0 8 9 15 20 15 11 0 20 7 20 15 0 8 14 17 35 21 20 3 35 12 35 20 0 9 12 14
35 14 23 0 35 5 35 14 0 8 16 15 42 19 23 3 45 13 50 21 6 11 23 16 53 16 33
0 45 4 45 15 0 12 14 15 63 15 90 0 107 7 107 40 0 34 -47 199 -62 217 -25 31
-187 3 -332 -57 -41 -17 -130 -63 -197 -101 l-122 -70 -106 20 c-304 59 -654
54 -950 -13 l-105 -23 -55 37 c-169 115 -398 208 -532 217 l-77 6 -26 -81z"/>
<path d="M5148 4953 c-10 -2 -18 -8 -18 -13 0 -4 -30 -11 -67 -15 -36 -4 -73
-13 -80 -21 -8 -8 -32 -14 -54 -14 -28 0 -39 -4 -39 -15 0 -10 -10 -15 -28
-15 -15 0 -35 -9 -45 -20 -9 -11 -26 -20 -37 -20 -11 0 -20 -7 -20 -15 0 -10
-11 -15 -35 -15 -24 0 -35 -5 -35 -15 0 -8 -6 -15 -13 -15 -7 0 -20 -9 -30
-20 -9 -11 -26 -20 -37 -20 -11 0 -20 -7 -20 -15 0 -8 -7 -15 -15 -15 -8 0
-15 -7 -15 -15 0 -8 -7 -15 -16 -15 -9 0 -18 -9 -21 -20 -3 -11 -12 -20 -19
-20 -8 0 -14 -7 -14 -15 0 -8 -7 -15 -15 -15 -8 0 -15 -6 -15 -14 0 -7 -9 -16
-20 -19 -11 -3 -20 -12 -20 -21 0 -9 -7 -16 -15 -16 -8 0 -15 -7 -15 -15 0 -8
-7 -15 -15 -15 -8 0 -15 -9 -15 -20 0 -11 -6 -20 -14 -20 -8 0 -17 -13 -21
-30 -4 -16 -13 -30 -21 -30 -8 0 -14 -9 -14 -20 0 -11 -7 -20 -15 -20 -10 0
-15 -10 -15 -28 0 -15 -9 -35 -20 -45 -11 -9 -20 -26 -20 -37 0 -11 -6 -20
-14 -20 -9 0 -15 -16 -19 -46 -2 -26 -9 -49 -14 -53 -6 -3 -13 -19 -17 -36 -4
-16 -13 -33 -19 -37 -6 -4 -13 -36 -15 -72 -3 -43 -9 -66 -17 -66 -8 0 -14
-42 -18 -150 -9 -193 1 -420 18 -420 8 0 14 -22 17 -61 2 -33 10 -64 17 -68 6
-4 14 -25 18 -47 3 -21 12 -43 20 -47 7 -4 13 -21 13 -37 0 -19 5 -30 14 -30
8 0 17 -15 20 -35 4 -19 11 -35 16 -35 5 0 12 -16 16 -35 3 -20 12 -35 20 -35
9 0 14 -12 14 -35 0 -24 5 -35 15 -35 8 0 15 -6 15 -13 0 -7 9 -20 20 -30 11
-9 20 -24 20 -32 0 -8 7 -15 15 -15 8 0 15 -9 15 -20 0 -13 7 -20 20 -20 11 0
20 -7 20 -15 0 -8 7 -15 15 -15 8 0 15 -6 15 -14 0 -8 14 -17 30 -21 17 -4 30
-13 30 -21 0 -8 9 -14 20 -14 11 0 20 -6 20 -14 0 -8 14 -17 30 -21 17 -4 30
-13 30 -21 0 -9 11 -14 35 -14 23 0 35 -5 35 -14 0 -8 15 -17 35 -20 21 -4 35
-13 35 -21 0 -10 10 -15 30 -15 20 0 30 -5 30 -15 0 -11 12 -15 50 -15 37 0
50 -4 50 -15 0 -10 16 -16 49 -21 28 -4 52 -12 55 -20 3 -8 20 -14 41 -14 23
0 35 -5 35 -14 0 -10 20 -15 77 -18 48 -2 78 -8 81 -16 3 -9 51 -12 187 -12
153 0 184 2 189 15 4 11 22 15 71 15 51 0 65 3 65 15 0 10 10 15 28 15 42 0
72 11 72 26 0 9 12 14 35 14 24 0 35 5 35 15 0 11 12 15 50 15 36 0 50 4 50
14 0 20 151 35 208 20 24 -7 31 -34 8 -34 -8 0 -17 -15 -20 -34 -4 -19 -12
-36 -19 -39 -8 -2 -12 -25 -12 -61 0 -44 4 -60 18 -67 9 -6 17 -21 17 -34 0
-16 6 -25 16 -25 9 0 18 -9 21 -20 3 -11 12 -20 19 -20 8 0 14 -7 14 -15 0 -8
7 -15 15 -15 8 0 15 -9 15 -20 0 -11 7 -20 15 -20 8 0 15 -7 15 -15 0 -8 7
-15 15 -15 9 0 18 -7 21 -15 4 -8 12 -15 20 -15 8 0 14 -9 14 -20 0 -13 7 -20
20 -20 11 0 20 -7 20 -15 0 -8 7 -15 15 -15 8 0 15 -7 15 -15 0 -8 7 -15 15
-15 8 0 15 -9 15 -20 0 -11 7 -20 15 -20 8 0 15 -7 15 -15 0 -8 7 -15 16 -15
9 0 18 -9 21 -20 3 -11 12 -20 19 -20 8 0 14 -7 14 -15 0 -8 6 -15 13 -15 15
0 57 -44 57 -59 0 -6 7 -11 15 -11 8 0 15 -7 15 -15 0 -8 6 -15 13 -15 15 0
57 -44 57 -59 0 -6 7 -11 15 -11 8 0 15 -7 15 -15 0 -8 7 -15 16 -15 9 0 18
-9 21 -20 3 -11 12 -20 19 -20 8 0 14 -7 14 -15 0 -8 7 -15 15 -15 8 0 15 -7
15 -15 0 -8 7 -15 16 -15 9 0 18 -9 21 -20 3 -11 12 -20 19 -20 8 0 14 -7 14
-15 0 -8 7 -15 15 -15 8 0 15 -7 15 -15 0 -8 7 -15 16 -15 9 0 18 -9 21 -20 3
-11 12 -20 19 -20 8 0 14 -7 14 -15 0 -8 6 -15 13 -15 15 0 57 -44 57 -59 0
-6 14 -11 30 -11 20 0 30 -5 30 -15 0 -11 11 -15 35 -15 22 0 38 -6 41 -15 7
-18 100 -21 106 -4 2 6 25 13 51 16 31 4 47 10 47 19 0 9 11 14 30 14 19 0 30
5 30 14 0 7 9 16 20 19 11 3 20 12 20 21 0 9 7 16 15 16 8 0 15 7 15 15 0 8 5
15 11 15 15 0 89 74 89 89 0 6 6 11 14 11 7 0 16 9 19 20 3 11 12 20 21 20 9
0 16 7 16 15 0 8 7 15 15 15 10 0 15 10 15 30 0 19 5 30 14 30 8 0 17 15 20
34 4 19 12 36 19 39 8 2 12 29 12 81 0 63 -3 79 -17 87 -11 6 -18 22 -18 39 0
20 -5 30 -15 30 -8 0 -15 7 -15 15 0 9 -6 18 -14 21 -8 3 -18 19 -21 35 -4 16
-13 29 -21 29 -8 0 -14 7 -14 15 0 8 -6 15 -14 15 -7 0 -16 9 -19 20 -3 11
-12 20 -21 20 -9 0 -16 7 -16 15 0 8 -7 15 -15 15 -8 0 -15 7 -15 15 0 8 -7
15 -15 15 -8 0 -15 9 -15 20 0 13 -7 20 -20 20 -11 0 -20 7 -20 15 0 8 -7 15
-15 15 -8 0 -15 7 -15 15 0 8 -7 15 -15 15 -8 0 -15 9 -15 20 0 13 -7 20 -20
20 -11 0 -20 7 -20 15 0 8 -7 15 -15 15 -8 0 -15 7 -15 15 0 8 -7 15 -15 15
-8 0 -15 9 -15 20 0 13 -7 20 -20 20 -11 0 -20 7 -20 15 0 8 -7 15 -15 15 -8
0 -15 9 -15 20 0 11 -7 20 -15 20 -8 0 -15 7 -15 15 0 8 -9 15 -20 15 -11 0
-20 7 -20 15 0 8 -7 15 -15 15 -8 0 -15 9 -15 20 0 11 -7 20 -15 20 -8 0 -15
7 -15 15 0 8 -9 15 -20 15 -11 0 -20 7 -20 15 0 8 -7 15 -15 15 -8 0 -15 9
-15 20 0 13 -7 20 -20 20 -11 0 -20 7 -20 15 0 8 -7 15 -15 15 -8 0 -15 9 -15
20 0 11 -7 20 -15 20 -8 0 -15 7 -15 15 0 8 -9 15 -20 15 -11 0 -20 7 -20 15
0 8 -7 15 -15 15 -8 0 -15 7 -15 15 0 8 -6 15 -13 15 -7 0 -20 9 -30 20 -9 11
-26 20 -37 20 -11 0 -20 7 -20 15 0 10 -10 15 -30 15 -18 0 -33 6 -36 15 -5
11 -22 15 -70 15 -50 0 -64 -3 -64 -15 0 -10 -11 -15 -35 -15 -28 0 -35 -4
-35 -20 0 -11 -6 -20 -14 -20 -8 0 -17 -11 -20 -25 -5 -18 -15 -27 -36 -32
-17 -3 -30 -12 -30 -19 0 -8 -7 -14 -15 -14 -8 0 -15 -7 -15 -15 0 -8 -6 -15
-12 -15 -7 0 -23 -3 -35 -6 -19 -5 -23 -2 -23 15 0 12 -6 21 -15 21 -10 0 -15
10 -15 31 0 17 7 37 15 45 8 9 15 24 15 35 0 10 7 19 15 19 8 0 15 6 15 14 0
7 9 16 20 19 11 3 20 12 20 21 0 12 10 16 44 16 l44 0 7 65 c5 46 11 65 21 65
10 0 14 13 14 50 0 36 4 50 14 50 8 0 17 15 20 35 4 19 11 35 16 35 5 0 12 23
16 50 4 32 11 50 20 50 11 0 14 20 14 85 0 69 3 85 15 85 12 0 15 18 15 99 0
79 -3 100 -15 105 -11 4 -15 22 -15 71 0 49 -3 65 -14 65 -8 0 -17 -15 -20
-35 -6 -31 -11 -35 -36 -35 -28 0 -30 3 -30 35 0 23 -5 35 -14 35 -9 0 -16 20
-21 64 -4 42 -11 66 -21 70 -9 4 -14 21 -14 51 0 33 -4 45 -15 45 -11 0 -15
12 -15 50 0 36 -4 50 -14 50 -8 0 -17 15 -20 35 -4 19 -11 35 -16 35 -5 0 -12
16 -16 35 -3 20 -12 35 -20 35 -9 0 -14 11 -14 30 0 19 -5 30 -14 30 -8 0 -17
15 -20 35 -4 21 -13 35 -21 35 -8 0 -15 9 -15 20 0 11 -7 20 -15 20 -8 0 -15
7 -15 15 0 8 -6 15 -14 15 -8 0 -17 14 -21 30 -4 17 -13 30 -21 30 -8 0 -14 9
-14 20 0 13 -7 20 -20 20 -11 0 -20 7 -20 15 0 8 -7 15 -15 15 -8 0 -15 6 -15
14 0 8 -13 17 -30 21 -16 4 -30 13 -30 21 0 8 -9 14 -20 14 -11 0 -20 7 -20
15 0 8 -7 15 -15 15 -8 0 -15 7 -15 15 0 8 -14 17 -35 21 -20 3 -35 12 -35 20
0 9 -11 14 -30 14 -19 0 -30 5 -30 14 0 8 -15 17 -35 20 -21 4 -35 13 -35 21
0 10 -11 15 -35 15 -24 0 -35 5 -35 15 0 11 -12 15 -50 15 -36 0 -50 4 -50 14
0 10 -20 16 -67 21 -38 4 -71 12 -75 19 -7 11 -373 20 -410 9z m424 -63 c45 0
58 -3 58 -15 0 -11 12 -15 50 -15 34 0 52 -5 58 -16 5 -8 27 -18 50 -21 26 -4
42 -11 42 -19 0 -9 12 -14 35 -14 24 0 35 -5 35 -15 0 -10 10 -15 31 -15 22 0
32 -5 36 -20 3 -11 14 -20 24 -20 11 0 19 -7 19 -15 0 -10 10 -15 30 -15 20 0
30 -5 30 -15 0 -8 7 -15 15 -15 8 0 15 -7 15 -16 0 -9 9 -18 20 -21 11 -3 20
-12 20 -19 0 -8 7 -14 15 -14 8 0 15 -7 15 -15 0 -8 5 -15 11 -15 15 0 59 -42
59 -57 0 -7 7 -13 15 -13 8 0 15 -9 15 -20 0 -11 6 -20 14 -20 8 0 17 -13 21
-30 4 -16 13 -30 21 -30 8 0 14 -9 14 -20 0 -11 7 -20 15 -20 10 0 15 -10 15
-30 0 -20 5 -30 15 -30 8 0 17 -14 21 -35 3 -20 12 -35 20 -35 9 0 14 -12 14
-35 0 -23 5 -35 14 -35 9 0 15 -16 19 -46 2 -26 11 -50 18 -54 7 -5 15 -35 17
-69 3 -43 8 -61 18 -61 12 0 14 -40 14 -220 0 -180 -2 -220 -14 -220 -10 0
-15 -18 -18 -61 -3 -44 -9 -64 -21 -71 -10 -5 -17 -21 -17 -38 0 -20 -5 -30
-15 -30 -10 0 -15 -11 -15 -35 0 -24 -5 -35 -14 -35 -8 0 -17 -13 -21 -29 -3
-16 -13 -32 -21 -35 -8 -3 -14 -19 -14 -36 0 -20 -5 -30 -15 -30 -8 0 -15 -6
-15 -12 0 -16 -44 -58 -59 -58 -6 0 -11 -9 -11 -20 0 -11 -6 -20 -14 -20 -8 0
-17 -13 -21 -30 -4 -16 -13 -30 -21 -30 -8 0 -14 -7 -14 -15 0 -8 -7 -15 -15
-15 -8 0 -15 -6 -15 -14 0 -7 -9 -16 -20 -19 -11 -3 -20 -12 -20 -21 0 -11 -9
-16 -30 -16 -23 0 -30 -4 -30 -20 0 -11 -6 -20 -14 -20 -8 0 -16 -7 -20 -15
-3 -8 -12 -15 -21 -15 -8 0 -15 -7 -15 -15 0 -10 -10 -15 -30 -15 -19 0 -30
-5 -30 -14 0 -8 -15 -17 -35 -20 -21 -4 -35 -13 -35 -21 0 -10 -10 -15 -30
-15 -20 0 -30 -5 -30 -15 0 -9 -9 -15 -24 -15 -14 0 -31 -7 -40 -15 -8 -8 -35
-18 -60 -21 -29 -4 -46 -12 -46 -20 0 -11 -18 -14 -70 -14 -56 0 -70 -3 -70
-15 0 -13 -26 -15 -170 -15 -144 0 -170 2 -170 15 0 12 -16 15 -80 15 -61 0
-80 3 -80 14 0 9 -18 15 -52 19 -29 4 -54 11 -56 17 -2 5 -19 12 -38 16 -19 3
-34 12 -34 20 0 9 -11 14 -30 14 -19 0 -30 5 -30 14 0 8 -15 17 -35 20 -21 4
-35 13 -35 21 0 10 -10 15 -30 15 -20 0 -30 5 -30 15 0 8 -9 15 -20 15 -11 0
-20 6 -20 14 0 7 -9 16 -20 19 -11 3 -20 12 -20 21 0 9 -7 16 -15 16 -8 0 -15
7 -15 15 0 8 -7 15 -15 15 -8 0 -15 6 -15 14 0 7 -9 16 -20 19 -11 3 -20 12
-20 21 0 9 -7 16 -15 16 -8 0 -15 7 -15 15 0 8 -7 15 -15 15 -8 0 -15 9 -15
20 0 11 -6 20 -14 20 -8 0 -17 14 -21 30 -4 17 -13 30 -21 30 -8 0 -14 9 -14
20 0 11 -7 20 -15 20 -10 0 -15 10 -15 30 0 19 -5 30 -14 30 -8 0 -17 15 -20
34 -4 19 -11 36 -17 38 -6 2 -13 25 -16 51 -4 31 -10 47 -19 47 -10 0 -14 14
-14 50 0 36 -4 50 -14 50 -30 0 -33 423 -4 441 6 4 13 44 16 88 3 55 9 81 17
81 7 0 15 19 18 47 3 26 10 49 16 51 6 2 13 19 17 38 3 19 12 34 20 34 9 0 14
12 14 35 0 24 5 35 15 35 10 0 15 10 15 30 0 19 5 30 14 30 8 0 17 14 21 30 4
17 13 30 21 30 8 0 14 9 14 20 0 11 7 20 15 20 8 0 15 7 15 15 0 9 6 18 14 21
8 3 18 19 21 35 4 16 13 29 21 29 8 0 14 7 14 15 0 8 5 15 11 15 15 0 59 42
59 57 0 6 13 14 29 18 16 3 32 13 35 21 3 8 12 14 21 14 8 0 15 7 15 15 0 8 9
15 20 15 11 0 20 6 20 14 0 8 14 17 30 21 17 4 30 10 30 15 0 5 14 11 30 15
17 4 30 13 30 21 0 9 11 14 35 14 23 0 35 5 35 14 0 8 15 17 34 20 19 4 36 12
38 18 2 6 32 13 66 16 43 3 62 9 62 18 0 16 122 23 304 18 66 -2 145 -4 178
-4z m1268 -2235 c0 -10 10 -15 30 -15 21 0 30 -5 30 -16 0 -9 9 -18 20 -21 11
-3 20 -12 20 -19 0 -8 7 -14 15 -14 8 0 15 -7 15 -15 0 -8 9 -15 20 -15 11 0
20 -7 20 -15 0 -8 7 -15 15 -15 8 0 15 -9 15 -20 0 -11 7 -20 15 -20 8 0 15
-7 15 -15 0 -8 9 -15 20 -15 13 0 20 -7 20 -20 0 -11 7 -20 15 -20 8 0 15 -7
15 -15 0 -8 7 -15 15 -15 8 0 15 -7 15 -15 0 -8 9 -15 20 -15 13 0 20 -7 20
-20 0 -11 7 -20 15 -20 8 0 15 -7 15 -15 0 -8 9 -15 20 -15 11 0 20 -7 20 -15
0 -8 7 -15 15 -15 8 0 15 -9 15 -20 0 -11 7 -20 15 -20 8 0 15 -7 15 -15 0 -8
9 -15 20 -15 11 0 20 -7 20 -15 0 -8 7 -15 15 -15 8 0 15 -9 15 -20 0 -11 7
-20 15 -20 8 0 15 -7 15 -15 0 -8 9 -15 20 -15 13 0 20 -7 20 -20 0 -11 7 -20
15 -20 8 0 15 -7 15 -15 0 -8 7 -15 15 -15 8 0 15 -7 15 -15 0 -8 9 -15 20
-15 13 0 20 -7 20 -20 0 -11 7 -20 15 -20 8 0 15 -7 15 -15 0 -8 6 -15 14 -15
8 0 17 -13 21 -30 4 -16 13 -30 20 -30 8 0 14 -17 17 -47 6 -76 0 -93 -33 -93
-17 0 -32 6 -35 14 -3 8 -19 18 -35 21 -16 4 -29 13 -29 21 0 8 -7 14 -15 14
-8 0 -15 7 -15 15 0 8 -9 15 -20 15 -13 0 -20 7 -20 20 0 11 -7 20 -15 20 -8
0 -15 7 -15 15 0 8 -9 15 -20 15 -13 0 -20 7 -20 20 0 11 -7 20 -15 20 -8 0
-15 7 -15 15 0 8 -7 15 -15 15 -8 0 -15 7 -15 15 0 8 -9 15 -20 15 -13 0 -20
7 -20 20 0 11 -7 20 -15 20 -8 0 -15 7 -15 15 0 8 -7 15 -15 15 -8 0 -15 7
-15 15 0 8 -9 15 -20 15 -13 0 -20 7 -20 20 0 11 -7 20 -15 20 -8 0 -15 7 -15
15 0 8 -7 15 -15 15 -8 0 -15 7 -15 15 0 8 -9 15 -20 15 -13 0 -20 7 -20 20 0
11 -7 20 -15 20 -8 0 -15 7 -15 15 0 8 -7 15 -15 15 -8 0 -15 7 -15 15 0 8 -9
15 -20 15 -13 0 -20 7 -20 20 0 11 -7 20 -15 20 -8 0 -15 7 -15 15 0 8 -9 15
-20 15 -13 0 -20 7 -20 20 0 11 -7 20 -15 20 -8 0 -15 7 -15 15 0 8 -7 15 -15
15 -8 0 -15 7 -15 15 0 8 -9 15 -20 15 -13 0 -20 7 -20 20 0 11 -7 20 -15 20
-8 0 -15 7 -15 15 0 8 -6 15 -14 15 -8 0 -17 14 -21 30 -4 17 -13 30 -21 30
-9 0 -14 11 -14 35 0 25 4 35 15 35 9 0 18 7 21 15 4 9 19 15 35 15 19 0 29
-5 29 -15z"/>
<path d="M3240 3842 c-19 -11 -48 -41 -65 -67 -26 -42 -30 -60 -34 -131 -3
-71 0 -90 22 -137 38 -83 106 -120 170 -94 137 58 154 325 27 418 -39 29 -80
33 -120 11z"/>
</g>
</svg>
